PathFileType	4	(X/Y/Z)	/Users/niels/Desktop/University/Third Semester/Perception and Action/Exam/Gymnastics Motion Tracking/Code for Gym Tracking/Analyzed Data/Webcam_Backflip/id7_5_baseline_Sports2D/id7_5_baseline_Sports2D_px_person00.trc
DataRate	CameraRate	NumFrames	NumMarkers	Units	OrigDataRate	OrigDataStartFrame	OrigNumFrames
29.8125	29.8125	12	22	m	29.8125	100	160
Frame#	Time	Hip			RHip			RKnee			RAnkle			RBigToe			RSmallToe			RHeel			LHip			LKnee			LAnkle			LBigToe			LSmallToe			LHeel			Neck			Head			Nose			RShoulder			RElbow			RWrist			LShoulder			LElbow			LWrist		
		X1	Y1	Z1	X2	Y2	Z2	X3	Y3	Z3	X4	Y4	Z4	X5	Y5	Z5	X6	Y6	Z6	X7	Y7	Z7	X8	Y8	Z8	X9	Y9	Z9	X10	Y10	Z10	X11	Y11	Z11	X12	Y12	Z12	X13	Y13	Z13	X14	Y14	Z14	X15	Y15	Z15	X16	Y16	Z16	X17	Y17	Z17	X18	Y18	Z18	X19	Y19	Z19	X20	Y20	Z20	X21	Y21	Z21	X22	Y22	Z22
100	3.354297693920335	0.8740125463716727	-0.5019712377496759	0.0	0.8651918745497763	-0.5039399548311266	0.0	0.8909790477132552	-0.6111845871295215	0.0	0.8931564525198246	-0.7201956887322507	0.0	0.9322807444432938	-0.7503058072503281	0.0	0.9195264327033611	-0.7538789599052923	0.0	0.8869500813030671	-0.7372235360194278	0.0	0.8830899282162787	-0.5017331501845975	0.0	0.8951012294363052	-0.6091505357712866	0.0	0.8924466087460186	-0.7146236478469247	0.0	0.9284741113736638	-0.7433920086458499	0.0	0.9263078543032447	-0.7400123929525151	0.0	0.8844905087293308	-0.7295995109456603	0.0	0.8724879879838618	-0.35671250113958497	0.0	0.8718408267428772	-0.2875145188759703	0.0	0.879873980804652	-0.32570088757542787	0.0	0.8504133372828119	-0.37707159357538433	0.0	0.8443735493221729	-0.450022875227121	0.0	0.8849365076726631	-0.5029331834761983	0.0	0.8915808119680911	-0.3778867957937542	0.0	0.8923302054365607	-0.44542733576382476	0.0	0.9229535581969818	-0.5044642675574312	0.0
101	3.3878406708595383	0.8819931354081969	-0.5109321439950514	0.0	0.8720672055283655	-0.5130253363215065	0.0	0.8959311414944491	-0.6203676919002817	0.0	0.9027349289789096	-0.7291269347511633	0.0	0.9433477206812992	-0.7573214327723957	0.0	0.9297561406685894	-0.7611978150665074	0.0	0.8972336859588786	-0.7464937388906232	0.0	0.8927548645235648	-0.5107469982591657	0.0	0.9048784932090321	-0.6180340246897413	0.0	0.9076400405747999	-0.7240134268333102	0.0	0.9418925395548583	-0.7526882186827231	0.0	0.9417710201980449	-0.748707641930719	0.0	0.9007085593127202	-0.7394071398575591	0.0	0.877746219892048	-0.3649459250808419	0.0	0.8772507274007737	-0.2956594740335572	0.0	0.8852486182951221	-0.33441736992744103	0.0	0.8553889541016568	-0.38511969314768063	0.0	0.8492105256038398	-0.45837261511571714	0.0	0.8856972812032137	-0.5133555680653241	0.0	0.8969980546902682	-0.38599248891788446	0.0	0.8975155054972801	-0.45420805465922715	0.0	0.9243788808597534	-0.51373861431636	0.0
102	3.421383647798742	0.8900286930578486	-0.5234721240102173	0.0	0.8792334088356951	-0.5257529923494972	0.0	0.9013272432004604	-0.6329780528816578	0.0	0.9098862465340704	-0.7414803955015075	0.0	0.9514332264619808	-0.7674845973691315	0.0	0.9367953747934747	-0.7713856670457366	0.0	0.9046868674182129	-0.7587632265723239	0.0	0.9022581684315555	-0.5233063399033424	0.0	0.9146025020208608	-0.6303201969728623	0.0	0.919339043327028	-0.7361006859696959	0.0	0.952167145574218	-0.7642513241245895	0.0	0.9535145551913009	-0.7595755894907942	0.0	0.9132640695024539	-0.7514775598470389	0.0	0.8827572295487712	-0.3767646921960334	0.0	0.8823630527894225	-0.30767640836510846	0.0	0.8904975317251385	-0.34674114585448335	0.0	0.860107916050803	-0.3970542850991444	0.0	0.8541480179848877	-0.47054089250985875	0.0	0.8865371895089729	-0.5277108783566522	0.0	0.9021587506042326	-0.39756787401048216	0.0	0.9024512044629791	-0.46631232441416154	0.0	0.9252866274039917	-0.5265553770889859	0.0
103	3.454926624737945	0.8979454159260688	-0.5390251383434765	0.0	0.8865443597405025	-0.5415257118946029	0.0	0.9068804711874521	-0.6484742982024901	0.0	0.9143705086580957	-0.7566553073361648	0.0	0.956021292678467	-0.7804451302149076	0.0	0.9401910381895221	-0.7839997320028704	0.0	0.9090940532667169	-0.7734362839638995	0.0	0.9111889571800871	-0.5388823290731974	0.0	0.9236302081787953	-0.6455098234672882	0.0	0.9271706224067984	-0.7507581657320572	0.0	0.9591439551723993	-0.7777402870309487	0.0	0.961285715431182	-0.7724629097899554	0.0	0.921686396290664	-0.7657562486979497	0.0	0.8875789464214967	-0.3916869427297929	0.0	0.8871273175516693	-0.3230364931291273	0.0	0.895564983336759	-0.3620154542843764	0.0	0.8646365148030118	-0.4125910306071773	0.0	0.8591773139505778	-0.48609460826599427	0.0	0.8874322744933825	-0.5454584296642777	0.0	0.9071742228062344	-0.4122220244679458	0.0	0.9071797410042484	-0.48121770463999086	0.0	0.9261425104817075	-0.5425781596117998	0.0
104	3.4884696016771484	0.9055365616380253	-0.5566326682314056	0.0	0.893710208984905	-0.55938925717579	0.0	0.9120182308356366	-0.6660006278384855	0.0	0.9164914838051232	-0.7736924501694239	0.0	0.9571832303353993	-0.7954339962196322	0.0	0.9400765462349483	-0.7982740212027449	0.0	0.910950180817632	-0.7896499088050458	0.0	0.9192874679041931	-0.5565825601742233	0.0	0.9313278439204423	-0.6628159076762147	0.0	0.9314559083046271	-0.7673942134001751	0.0	0.9631403749953724	-0.7925522808023674	0.0	0.9653856357760522	-0.786889793204925	0.0	0.9262812495172171	-0.7818037367755415	0.0	0.892285887809607	-0.40885938720342935	0.0	0.8915115826745555	-0.34082295014252334	0.0	0.9004009846515431	-0.37927917354128693	0.0	0.8690524306086008	-0.4309133631236387	0.0	0.8642332248653968	-0.5041880834044571	0.0	0.8882440170008633	-0.5655194440957056	0.0	0.9122242609550636	-0.4291833000249276	0.0	0.911977969582008	-0.4982312485263217	0.0	0.9276078565433056	-0.5610393940977405	0.0
105	3.522012578616352	0.9125805470096879	-0.5748995468983773	0.0	0.9003512238445458	-0.578013726451578	0.0	0.9161497168418657	-0.6843261606243392	0.0	0.9169013328745446	-0.791278508954207	0.0	0.9554700456512529	-0.8112902245924652	0.0	0.9370937806490609	-0.8131570004819434	0.0	0.9111331589597603	-0.8062059652239537	0.0	0.9264975906458188	-0.5750970174241091	0.0	0.9372501887805654	-0.6810699557848037	0.0	0.93307366468294	-0.7848380523613576	0.0	0.9648194252564576	-0.8077265780666493	0.0	0.9665677813986889	-0.8019197802589003	0.0	0.92799133073244	-0.7985827558637775	0.0	0.8969385291820771	-0.4269802378447561	0.0	0.8954753001553262	-0.3597014145766222	0.0	0.9049612588318058	-0.39724435454939894	0.0	0.8733745633047151	-0.4505753882222862	0.0	0.8691643349041244	-0.5234595993234257	0.0	0.8888267245361862	-0.5863287173868932	0.0	0.9174773957413331	-0.4471742816024983	0.0	0.917221369788287	-0.5163086087931668	0.0	0.9303429823369629	-0.5806607574448578	0.0
106	3.555555555555555	0.918856793302279	-0.5921130678148664	0.0	0.9060863085968057	-0.5957620477781298	0.0	0.9189514711005475	-0.7018159731966301	0.0	0.9163135666648499	-0.807809213752299	0.0	0.9518368607540447	-0.8265290546446444	0.0	0.9324209307528328	-0.8273661210455997	0.0	0.9104640072051743	-0.8216222599481231	0.0	0.9328461961831175	-0.592777279434	0.0	0.9412717231832115	-0.6986607316260577	0.0	0.9330815011421197	-0.8014281121890537	0.0	0.964929281988119	-0.8219938484521468	0.0	0.9658168966545071	-0.8162421623489643	0.0	0.9280065483055295	-0.8144913297250844	0.0	0.901560805817749	-0.44437403180687957	0.0	0.8990291213854988	-0.3779883905100796	0.0	0.9091871224739401	-0.41432170534704466	0.0	0.877530344770356	-0.46963035875251097	0.0	0.8737327734276087	-0.5420779493482198	0.0	0.8891069085957658	-0.6059428086120783	0.0	0.9230145792719063	-0.4644397239775244	0.0	0.9231215192533822	-0.5338554727148981	0.0	0.9346046099599208	-0.599578019807312	0.0
107	3.5890985324947584	0.924156739024446	-0.6065332224498058	0.0	0.9106185041142106	-0.6108722336459677	0.0	0.9204851911913055	-0.7165471284340221	0.0	0.9153324266683929	-0.8215372717971161	0.0	0.9475459783065167	-0.839430091935421	0.0	0.9276767725576167	-0.8394206311012534	0.0	0.9094765689669017	-0.8343003536256142	0.0	0.9383138981615791	-0.6078436979009789	0.0	0.9436243987143702	-0.7136324663457685	0.0	0.9323870928662548	-0.8152639466934062	0.0	0.964177163909659	-0.8338787372124391	0.0	0.9641812828281043	-0.8283127024547473	0.0	0.9273859137965176	-0.8276730200911775	0.0	0.9061121433092154	-0.45923044781879163	0.0	0.9022870340273346	-0.39381896120862925	0.0	0.9130034734943276	-0.42878430122115874	0.0	0.8813855876409973	-0.48594883744326106	0.0	0.8776712887737805	-0.5580291864063506	0.0	0.889077381058659	-0.6223443519548515	0.0	0.9287976168576838	-0.4790121634724467	0.0	0.9296655493151903	-0.5488744736843875	0.0	0.9401597583250021	-0.6155311399261656	0.0
108	3.622641509433962	0.9283196802344018	-0.6166997318192801	0.0	0.9138099223110485	-0.6217100159693967	0.0	0.9210910322086601	-0.726700213472397	0.0	0.914411412630124	-0.830881384342478	0.0	0.9438656534971572	-0.8483155870577221	0.0	0.9243794065575622	-0.8478105566096041	0.0	0.9084733776653607	-0.842813335039503	0.0	0.9428360408357372	-0.6186679820144053	0.0	0.9447900831181084	-0.7241107324881467	0.0	0.9316347713847917	-0.8246489949855964	0.0	0.963236101324396	-0.8419392512968217	0.0	0.9626078287304133	-0.8366221533090542	0.0	0.9268517801625995	-0.8365180707274268	0.0	0.910479392379154	-0.4699060487282829	0.0	0.9054155287365308	-0.40543488349247836	0.0	0.9163548216373943	-0.43906038116112117	0.0	0.8848139501266038	-0.4976217727713922	0.0	0.8807790222729132	-0.5695159985701549	0.0	0.8887357823655855	-0.6338812340309046	0.0	0.9346804580891764	-0.48913238095714906	0.0	0.9367344418794971	-0.5594985100171367	0.0	0.9466777517139876	-0.6264422075282066	0.0
109	3.656184486373165	0.9312872854577416	-0.6216362310992055	0.0	0.9157181166884133	-0.6270764919142536	0.0	0.9211727050574838	-0.7310957515189799	0.0	0.9138234407894291	-0.8348238855142284	0.0	0.9416860003804454	-0.8520387684055257	0.0	0.9233219465579152	-0.8514163714602366	0.0	0.907652419404721	-0.8462574763749664	0.0	0.9463586365549251	-0.6240969874827355	0.0	0.9452962287004705	-0.7288735941998616	0.0	0.9311740226023913	-0.8285628343448963	0.0	0.9626526903270572	-0.845196161097253	0.0	0.9617176874848328	-0.8401449057589447	0.0	0.9267333624564754	-0.840107650818128	0.0	0.9145122538260502	-0.4751927522898098	0.0	0.9085315528201909	-0.41153137574250953	0.0	0.9192308335776013	-0.44404078438855443	0.0	0.8877395604664114	-0.5033137251643528	0.0	0.883001702330228	-0.5752571833194349	0.0	0.8880194162568161	-0.6395257072709412	0.0	0.9404580434135629	-0.4936266258835664	0.0	0.9441219894078201	-0.5645182079275063	0.0	0.9540317906344755	-0.631040786719649	0.0
110	3.6897274633123684	0.9331239529230204	-0.6209443033012106	0.0	0.9165620857609076	-0.6264613453474565	0.0	0.9210638094568024	-0.7294648334504863	0.0	0.9136381912600141	-0.8331218624310913	0.0	0.9413578748252642	-0.8502990682984729	0.0	0.9244857872055574	-0.8498763633883467	0.0	0.9071182863521144	-0.8444605727231725	0.0	0.9488742292334699	-0.6236646334442827	0.0	0.945547215181917	-0.7276157000632131	0.0	0.9310653613083111	-0.8268305076841739	0.0	0.9626782518995651	-0.8434467086317646	0.0	0.9617056284045907	-0.8386461049409665	0.0	0.9270243826572265	-0.8383465741930393	0.0	0.9180855371352324	-0.4745104980943283	0.0	0.9116548362275914	-0.4114952140141042	0.0	0.9216637942677325	-0.44326629642968224	0.0	0.8901382097662128	-0.502486759312898	0.0	0.8844509987095724	-0.5746635117940935	0.0	0.8868320624347067	-0.6389048663482425	0.0	0.9459154396821938	-0.49208033145665303	0.0	0.9514689289747124	-0.5635336914996466	0.0	0.9621617256954995	-0.6290657741377108	0.0
111	3.723270440251572	0.9340146410553134	-0.6148174889213847	0.0	0.9166455730366827	-0.6201051490502207	0.0	0.9210065811941195	-0.7223129065894267	0.0	0.9137646955454605	-0.826209163391	0.0	0.9427162747458768	-0.8435546233161122	0.0	0.9273319035205514	-0.8435708194468795	0.0	0.9068574193720369	-0.8378946435081488	0.0	0.9504901514833509	-0.6175783022601904	0.0	0.9457685261826314	-0.7208150790935264	0.0	0.9311854535981586	-0.8199593507859625	0.0	0.963196446288661	-0.8372027912219316	0.0	0.9623990006875432	-0.8326075375954072	0.0	0.9275219584718647	-0.8317793155071771	0.0	0.9211538366774779	-0.4680043009340765	0.0	0.9147286856705222	-0.4054756955275259	0.0	0.9237124839101535	-0.43694911627889726	0.0	0.8920419254701196	-0.4954559771827681	0.0	0.8853241775877989	-0.5679218596186812	0.0	0.885186113191646	-0.6322849715915418	0.0	0.9508807798135992	-0.4848092961095688	0.0	0.9583447242836187	-0.5568003722265211	0.0	0.970827476931776	-0.620974739115641	0.0
